Sex and Submission-Steve Sandra Lea Crystal

Check out MY latest Uploads:
 
http://thepiratebay.org/user/HDvideos/0/7

Stay updated with us....

Seed after downloading....

EnjoY with HDvideos..

Team Mastitorrents

Say thanks if u like my posts

Give ur valuable feedbacks

Quality Uploads from HDvideos

-=MTR=-

Recommended Player:VLC Player

Format                           : MPEG-4
Format profile                   : Base Media / Version 2
Codec ID                         : mp42
File size                        : 1.08 GiB
Duration                         : 50mn 53s
Overall bit rate                 : 3 052 Kbps
Encoded date                     : UTC 2008-12-17 05:41:13
Tagged date                      : UTC 2008-12-17 05:41:13

Video
ID                               : 1
Format                           : AVC
Format/Info                      : Advanced Video Codec
Format profile                   : Main@L3.1
Format settings, CABAC           : Yes
Format settings, ReFrames        : 2 frames
Format settings, GOP             : M=2, N=33
Codec ID                         : avc1
Codec ID/Info                    : Advanced Video Coding
Duration                         : 50mn 53s
Bit rate mode                    : Variable
Bit rate                         : 2 923 Kbps
Maximum bit rate                 : 5 000 Kbps
Width                            : 1 280 pixels
Height                           : 720 pixels
Display aspect ratio             : 16:9
Frame rate mode                  : Constant
Frame rate                       : 29.970 fps
Color space                      : YUV
Chroma subsampling               : 4:2:0
Bit depth                        : 8 bits
Scan type                        : Progressive
Bits/(Pixel*Frame)               : 0.106
Stream size                      : 1.04 GiB (96%)
Language                         : English
Encoded date                     : UTC 2008-12-17 05:41:13
Tagged date                      : UTC 2008-12-17 05:41:13

Audio
ID                               : 2
Format                           : AAC
Format/Info                      : Advanced Audio Codec
Format profile                   : LC
Codec ID                         : 40
Duration                         : 50mn 53s
Bit rate mode                    : Constant
Bit rate                         : 125 Kbps
Nominal bit rate                 : 4 295 Mbps
Channel(s)                       : 2 channels
Channel positions                : Front: L R
Sampling rate                    : 44.1 KHz
Compression mode                 : Lossy
Stream size                      : 45.5 MiB (4%)
Language                         : English
Encoded date                     : UTC 2008-12-17 05:41:13
Tagged date                      : UTC 2008-12-17 05:41:13